<svg version="1" xmlns="http://www.w3.org/2000/svg" width="994.667" height="994.667" viewBox="0 0 746.000000 746.000000"><path d="M548.4 29.9c-2.8 4.3-14.4 32.2-14.4 34.8 0 1-.5 1.3-1.7.8-1-.4-5-.9-9-1.2-6.2-.5-7.6-.3-10.6 1.6-2 1.2-4.9 4.3-6.6 6.8-5.3 8-5.3 14.4-.1 22.6l2.9 4.7-5.1 8.5c-2.8 4.7-5.5 8.2-6.1 7.8-.6-.3-.7-.1-.3.6.7 1.1-7.1 14.6-10.1 17.7-.8.8-1.2 1.4-.9 1.4.3 0-.8 2.3-2.5 5-1.7 2.8-3.5 4.7-4.1 4.3-.7-.3-.8-.1-.4.5.7 1.2-10.9 21.6-14 24.6-.8.9-1.4 1.8-1.4 2.1.2 1.7-3.2 6.5-4.2 5.9-.7-.4-.8-.3-.4.4.9 1.5-2.4 7.3-3.7 6.5-.6-.3-.7-.1-.3.5 1.1 1.8-6.4 9.1-12.5 12.2-6.7 3.5-16.9 6.2-31 8.5-27 4.3-39.1 6.6-47.4 9-10 2.9-22.8 7.8-26.3 10.1-1.9 1.3-2.6 1.3-4 .3-1.4-1.1-1.5-1.1-.5.1 1 1.1.1 2.1-5 5.4-9.5 6.2-21.3 18.7-28.8 30.6-9.6 15.2-19.1 30.6-21.3 34.5-1.1 1.9-2.4 3.1-2.9 2.8-.6-.3-.7-.1-.3.5.9 1.5-2.3 6.4-3.7 5.5-.6-.3-.7-.1-.3.6 1 1.5-10.4 20.1-12.4 20.2-.9 0-1 .3-.3.5 1.2.5-3.8 9.9-7.5 14-.9 1.1-1.8 2.5-1.9 3-.2.9-8.4 14.6-18.3 30.4-.5.8-4.5 7.3-8.8 14.5-15.7 25.9-25.7 42.1-28.7 46.5-1.7 2.5-3.4 5.2-3.7 6-1.1 3-15.5 25.9-16 25.5-.3-.3-.5.1-.5.8 0 1.6-7.3 13.7-8.3 13.7-.3 0-.7.6-.7 1.2 0 .7-2.7 5.6-6 10.8-3.3 5.2-7.9 12.8-10.2 16.7-2.5 4.1-4.8 7-5.4 6.6-.5-.3-.7-.1-.3.5.8 1.4-7.5 15.2-8.8 14.5-.5-.3-.6-.1-.2.5.6 1-9 17.3-10.6 18-.5.2-.8.8-.8 1.4 0 .6-3.7 7.1-8.1 14.4-7.5 12.3-8.2 13.8-8.2 18.6.1 6.4 3.4 15.5 8.1 22.3 2 2.7 3.5 5.5 3.5 6.2 0 .7.2 1.1.5.9.2-.3 2.9 2.4 5.9 6 5.9 7 19.6 20.5 27.8 27.4 2.8 2.3 5.6 4.9 6.3 5.8.6.9 1.2 1.3 1.2.9s2.9 1.5 6.4 4.3c3.6 2.8 11 8.1 16.5 11.9 5.5 3.7 9.7 7.1 9.3 7.5-.4.4-.2.6.5.4 1.7-.5 21.3 11.4 20.6 12.5-.3.6-.1.7.5.4 1.5-1 4.3.3 3.5 1.6-.3.6-.1.7.5.3 1.5-.9 9.5 3.8 8.5 4.9-.5.4-.3.5.3.2.7-.4 6.1 1.6 12 4.4 13.8 6.4 27.5 11.9 38.4 15.3 4.7 1.5 9.2 2.9 10 3.3.8.3 2.4.6 3.5.8 1.1.1 5.5.7 9.7 1.5 4.2.7 11.6 1.1 16.5.8 11.4-.6 16.1-2.9 20.8-10.2 1.9-3 4-6 4.7-6.8.7-.7 1.4-1.9 1.5-2.5.1-.6 4.2-7.5 9-15.2 4.8-7.8 9.3-14.9 9.8-15.9 4-7.2 8-13 8.6-12.7.4.3.6-.1.5-.8-.2-2 21.8-37.6 22.8-36.9.5.3.6 0 .3-.5-.4-.6 1.3-4 3.6-7.5 2.4-3.5 4.6-7.1 4.9-7.9.3-.8 4.7-8.2 9.8-16.4 5.1-8.3 10.4-16.9 11.8-19.3 1.8-3.1 2.9-4.2 4.1-3.7 1.2.5 1.3.3.5-.5-.9-.9-.3-2.6 2.3-7.1 2-3.3 4-5.6 4.6-5.2.5.3.7.1.3-.5-.5-.9 7.4-15.5 9.4-17.2.3-.3 1.1-1.8 1.8-3.3.7-1.7 1.7-2.5 2.4-2.1.7.4.8.3.4-.5-.4-.6.5-3 2.1-5.4 1.5-2.3 3.4-5.4 4.2-6.9.8-1.5 1.8-2.5 2.2-2.2.5.3.6-.3.2-1.2-.4-1-.2-1.5.4-1.1.5.3 1 .1 1-.6 0-.9 12.3-21.3 29.3-48.7.5-.8 2.9-4.8 5.3-8.7 2.4-4 4.8-6.9 5.2-6.5.5.4.5.2.1-.5-.7-1.3 6.7-13.7 7.6-12.7.3.3.5-.1.5-.8-.2-1.6 22.4-38.8 23.3-38.3.3.2.6-.4.7-1.3.1-.9 1.7-5.5 3.6-10.2 5-11.9 6.9-22.2 6.9-36.5.1-19.1-2.5-31.4-13.8-65.9-3.5-10.9-7.2-24.1-8.1-29.3-2.3-14.1-1.2-18.3 9.5-36 4.7-7.8 8.9-14 9.3-13.7.4.2.6-.2.5-.9 0-.6 7.3-13.3 16.4-28.1 9.1-14.7 17.4-28.4 18.6-30.3l2.1-3.6h9.6c5.3.1 9.5-.2 9.4-.6-.1-.3 1.3-2.2 3.1-4.1 1.8-1.9 3.2-3.8 3.2-4.3 0-.4.5-.5 1.2-.1.6.4.8.3.5-.3-.3-.5.1-2.9.9-5.3 2.3-6.5.3-12.8-6.1-19.8l-3-3.3 4-3.8c2.2-2.1 6-6.3 8.5-9.2 2.5-2.9 5.7-6.5 7.3-8 1.5-1.5 2.7-3 2.7-3.4 0-.3 1.1-2.1 2.5-3.9 2.9-3.8 3.1-6.3.9-9.4-.8-1.2-1.2-2.7-.8-3.4.4-.6.3-.8-.3-.5-.5.3-2.5-1-4.4-2.9-1.9-1.9-5.8-5.4-8.6-7.6-2.9-2.2-5-4.5-4.6-5.1.4-.6.1-.7-.7-.2-.8.5-1.8.1-2.7-1.1-.8-1-1.6-1.8-1.9-1.6-.8.5-8.4-4.4-7.9-5.1.3-.4.2-.5-.1-.3-.3.3-5-1.8-10.4-4.5-10.3-5.1-19-7.9-24.7-7.9-2.7 0-3.7.7-5.9 3.9zM528.8 69c.2.5 1 .6 1.8.3 2-.7 1.7 1-.6 3.7-2.3 2.6-2.5 4.2-.8 7.3 1 2 1 2.1-.5.8-2.2-1.7-2.2-5.9-.1-8.3 1.6-1.7 1.5-1.9-1.9-3.3s-9.5-1.4-11.7 0c-1.8 1.1-1 4.9 1.8 9.1 6.8 10.1 13.2 16.2 11.9 11.4-.3-1.1-.1-1.8.4-1.4.5.3.9 1.1.9 1.8 0 .8.7 1.9 1.5 2.6.8.6 1.3 1.5 1.2 1.8-.1.4.1.8.5 1 .4.2 2.3 1.7 4.2 3.4 1.9 1.6 3.7 2.8 4 2.7.3-.2 1.2.5 2 1.6 1.3 1.8 1.7 1.9 3.8.6 2.1-1.3 2.2-1.3.9.3-1.3 1.5-1.3 1.9 0 2.7 3.7 2.5 6.7 3.8 7.4 3.1.5-.4.5-.1.1.5-.6 1.2.5 1.8 2.7 1.4.4 0 .7.3.7.8 0 1.1 3.9 2.6 5.9 2.2.7-.1 1 .2.7.7-1 1.6 14.7 7.3 25.4 9.2l4.5.7-3.7.2c-13.9.5-49.1-18.3-66.4-35.4-11.9-11.8-15.5-20.1-9.6-22.4 3-1.1 12.5-.5 13 .9zm-10.5 4.5c-.3.9-.8 1.4-1 1.1-.3-.3-.2-.9.2-1.5.9-1.6 1.5-1.3.8.4zM514.6 84c15.3 21.2 61.6 47.4 81 45.8 2.4-.2 4.4 0 4.4.4 0 .3-1.5 2.2-3.3 4.1-4.3 4.7-8.5 5.4-18.4 3.2-12-2.7-23.2-7.8-40.8-18.8C525 110.9 510.3 97 507 89.8c-2.1-4.7-2.6-8.3-1-7.3.6.4.9 1.2.8 1.8-.1.7.1 2.5.5 4 .6 2 1.2 2.7 2.3 2.3.9-.3 1.2-.2.9.5-1.2 1.8 6.1 11.3 7.8 10.2.6-.3.7-.1.4.4-.4.6 1.3 2.7 3.8 4.8 2.5 2 4.5 3.4 4.5 3.1 0-.3.9.3 2 1.4 1.2 1.2 2.6 1.8 3.2 1.4.7-.4.8-.3.4.4s-.1 1.2.9 1.2 1.3.5.9 1.2c-.5.8-.2.9 1 .5 1-.4 1.5-.3 1.1.3-.3.6.1 1 .9 1 .9 0 1.6.4 1.6.9s1.6 1.9 3.5 3.1c3.1 1.9 3.8 2 5.3.8s1.6-1.1.4.4c-1.5 1.8 0 3.4 2.1 2.2.6-.4.9-.4.5.1-1.1 1.2 8.4 5.5 10.7 4.9 1.6-.4 1.7-.3.5.5-.8.6-1.3 1.1-1 1.1.3 0 3.6 1.1 7.3 2.5 8 2.9 13.6 4 19.5 3.8 4.4-.1 8.7-2.7 7.5-4.6-.3-.5-.1-.7.5-.3.6.3 1.3.2 1.6-.2.3-.5-2.3-1.2-5.7-1.4-6.7-.6-22.2-5.5-29.9-9.5-2.7-1.4-5.3-2.1-6-1.7-.7.4-1 .4-.6-.1.4-.4-2.6-2.9-6.8-5.6-4.2-2.6-8.4-5.5-9.3-6.3-1-.9-2.2-1.6-2.8-1.6-.6 0-1.6-.7-2.3-1.5-.7-.8-1.7-1.2-2.3-.8-.6.3-.7.1-.3-.5 1-1.6-.6-1.5-2.4 0-1.3 1.1-1.3 1.1-.3-.1.9-1.1.6-2-1.9-4.5-1.8-1.7-3.5-3-4-2.9-.4.2-.7 0-.6-.5.2-.4-1.4-2.5-3.5-4.7-2-2.1-3.7-4.3-3.7-4.8 0-.4-.5-.5-1-.2-.6.4-1 .3-.9-.2.4-1.5-1.3-4.3-2.2-3.7-.5.3-.9.2-.8-.3.7-4-1.5-5.9-2.6-2.2-.4 1.1-.9 1.8-1.2 1.6-.2-.3.3-2 1.3-3.9l1.7-3.3 1 3c.5 1.6 2.5 5 4.3 7.5zm33 13.6c9 6.4 26.3 15 33 16.4 6.5 1.4 10.4.3 10.4-2.9 0-3.4 2.4-4.3 4.7-1.8 7.4 8 8.4 16.9 1.9 16.6-1.8-.1-1.7-.2.4-.8 3.7-1 3.7-4.4-.1-10.7-3.4-5.5-5.9-7-5.9-3.5 0 1.1-.9 2.6-2 3.4-1.1.8-1.8 1.6-1.6 1.8.2.2-.3 1.1-1.2 1.9-1.4 1.3-1.5 1.2-.9-.3.5-1.3 0-1.7-2.1-1.9-5.1-.3-5.7-.4-11.2-2.9-3-1.3-5.8-2.3-6.2-2.1-.5.1-.8-.2-.8-.8 0-.5-1-.9-2.2-.7-1.3.1-2.2-.3-2.1-1 .2-1-2.6-2.6-5-2.8-.4 0-1.1-.5-1.5-1.1-.4-.6-3.5-2.9-6.9-5.2-3.4-2.3-6.5-4.7-6.9-5.3-.4-.8-.9-.7-1.5.2-.7 1.1-.9 1-.9-.3 0-2-3.9-5-5.3-4.1-.6.3-.7.1-.3-.5.4-.6-.2-2-1.4-3.2-4.3-4.3-1.7-2.9 3.6 1.9 3.1 2.9 8.5 7.2 12 9.7zM537.5 93c.3.6-.1.7-.9.4-1.8-.7-2.1-1.4-.7-1.4.6 0 1.3.4 1.6 1zm5.5 4.5c0 .2-.6.5-1.3.8-.8.3-1.4-.1-1.4-.8 0-.7.6-1.1 1.4-.8.7.3 1.3.6 1.3.8zm-21.3 1.7c-.3.8-.6.5-.6-.6-.1-1.1.2-1.7.5-1.3.3.3.4 1.2.1 1.9zm4.7 5.6c.3.5-.1.9-.9.9s-1.2-.4-.9-.9c.3-.4.7-.8.9-.8.2 0 .6.4.9.8zm37.7 8.5c-.8.8-1.4.7-2.3-.2-1.1-1-.9-1.1.6-.5 1.5.6 1.7.4 1.1-.6-.6-.9-.4-1.1.4-.5.9.5 1 1 .2 1.8zm4.3.8c-.3.5-1 .7-1.5.3-.5-.3-.7-1-.3-1.5.3-.5 1-.7 1.5-.3.5.3.7 1 .3 1.5zM550 118c.8.5 1.1 1 .5 1-.5 0-1.7-.5-2.5-1s-1-1-.5-1c.6 0 1.7.5 2.5 1zm-42 8.3c0 .5-.6.2-1.4-.5-5.1-4.8-6.4-5.1-5.6-1.3.1.5-.2.7-.6.3-.9-1-5.4 6.3-4.7 7.6.4.5.1.6-.6.2-.8-.6-1.1-.2-.9 1 .2 1.1-.2 1.8-.7 1.7-.6-.1-3.5 4.2-6.5 9.5s-6 10.3-6.7 11c-.7.8-1.1 1.7-.8 2.2.3.4-.2 1-1 1.4-.8.3-1.5 1.2-1.5 2 0 .7-.7 1.7-1.6 2-1.5.6-1.5.4-.2-1.6.8-1.3 7-11.4 13.8-22.6l12.3-20.3 3.3 3.3c1.9 1.8 3.4 3.7 3.4 4.1zm67.7 5.3c-.3.3-1.2.4-1.9.1-.8-.3-.5-.6.6-.6 1.1-.1 1.7.2 1.3.5zm-56.1 3c1.9 1.5 3.2 2.9 3 3.2-.3.2-1.3-.3-2.2-1.2-.9-1-2.4-1.4-3.2-1.1-.9.3-1.3.3-.9-.1s.2-1.3-.4-2.1c-1.8-2.1 0-1.5 3.7 1.3zm-15.6-1.2c0 .2-.7.9-1.5 1.6-1.3 1.1-1.4 1-.9-.4.5-1.4 2.4-2.3 2.4-1.2zm8.4 6.2c-1.5 1.6-2.4 2.2-1.9 1.4 1.2-2.3 3.8-5.1 4.2-4.6.2.2-.8 1.7-2.3 3.2zm-12.3-.3c-1 .9-1.1.8-.5-.6.3-1 .9-1.5 1.2-1.2.3.3 0 1.1-.7 1.8zm29.6 2.3c2.5 1.4 4.2 2.8 3.9 3.1-.3.4-1.4-.1-2.3-.9-1-.9-3.1-2.3-4.8-3.1-1.6-.9-2.6-1.6-2.1-1.7.5 0 2.9 1.2 5.3 2.6zm-33.3 3.9c-1.9 2.9-2 2.9-3 1.3-.5-.7-.3-.8.6-.3 1 .6 1.2.4.7-.9-.4-.9-.3-1.4.2-1.1.5.3 1.2.1 1.6-.5.3-.5.8-1 1.1-1 .2 0-.3 1.1-1.2 2.5zm15.6-2.1c0 .2-.6.9-1.4 1.5-1.1.9-1.6.9-2.2 0-.4-.7-.3-.9.4-.5.6.3 1.3.2 1.7-.4.6-1 1.5-1.4 1.5-.6zm-3.6 3.4c.3.5-.1.9-.9.9s-1.2-.4-.9-.9c.3-.4.7-.8.9-.8.2 0 .6.4.9.8zM541 148c1.9 1.1 3.1 1.9 2.5 1.9-.5 0-2.6-.8-4.5-1.9-1.9-1.1-3-1.9-2.5-1.9.6 0 2.6.8 4.5 1.9zm13.2 5.6c4.6 2 8.4 3.7 8.5 3.8.4.3-11.9 20.1-12.9 20.7-.5.3-1 1-1 1.5.1.5-1.4 3.1-3.1 5.9-1.7 2.7-3.6 5.9-4.2 7-.7 1.1-5.6 9.2-10.9 18-14.9 24.3-14.1 22.3-14 35 0 12.5.5 14.8 9.9 43.5 10 30.7 11.9 40.3 11.9 59.5.1 24.1-2.9 33.6-18.6 59.2-12.5 20.3-12.5 20.3-16.4 27-2 3.5-4.1 6.3-4.7 6.3-.5 0-.8.3-.4.6.4.5-12.6 22.8-14.3 24.4-.3.3-1.4 2.1-2.4 4-1.1 1.9-3.8 6.4-6.1 10-2.3 3.6-5.1 8-6.1 9.9-1 1.8-2.3 4.1-2.9 5-.5.9-5.9 9.7-12 19.6-6 9.9-11.4 18.3-12 18.7-1.7 1.3-2.8.9-1.6-.5.6-.8.8-1.7.4-2.1-.4-.4-.1-.5.7-.2 2.2.8 9.6-12 8-13.9-1.5-1.9-.3-4 1.5-2.5 1.7 1.4 6.9-6.2 5.2-7.9-.6-.6-.8-1.1-.4-1.1 1.4 0 2.2-.4 3.2-1.4 1.7-1.7 8.6-13.5 8.3-14-.2-.2.7-1.5 1.8-2.8 2.5-2.7 4.9-7 4.6-8.1-.1-.4.3-.7.9-.7.6 0 .8-.7.5-1.6-.4-1-.2-1.3.6-.8s.9.2.5-1c-.4-1-.3-1.5.3-1.1.5.3 1.7-.7 2.6-2.2.9-1.5 2.5-4 3.6-5.6 1-1.5 1.6-3.2 1.3-3.7-.4-.6-.1-.9.7-.8.7.2 1.2-.3 1-1-.1-.6.3-1.2.9-1.2.5 0 .7-.4.4-1-.3-.6-.1-1 .4-1 .6 0 1.1-.7 1.1-1.5s.5-1.5 1.1-1.5c.5 0 .7-.5.4-1-.3-.6-.1-1 .4-1 .6 0 1.1-.5 1.1-1.2 0-.6 1.1-2.6 2.5-4.3 1.3-1.8 2.6-4.5 2.9-6 .3-1.5.8-3 1.2-3.4.4-.3.4.2.1 1.1-.4 1-.3 1.8.2 1.8s1.1-.8 1.4-1.8c.4-.9 3.1-5.8 6.1-10.7 3.1-5 6.1-10.2 6.7-11.8.6-1.5 1.5-2.7 2-2.7s.9-.6.9-1.3c0-.8 1-2.6 2.3-4 1.2-1.5 3.1-4.3 4.2-6.4 1.1-2.1 2.2-4 2.6-4.3.5-.5 1.8-3.2 6.4-13.4.9-2.1 1.8-4.9 1.9-6.2 0-1.3.4-2.4.7-2.4 1.4 0 3.3-14.2 3.4-25 0-11-2.1-30-3.4-30-.3 0-.6-1.3-.7-2.9-.1-4-6.6-24.1-7.6-23.5-.4.3-.5-.1-.2-.9s-.4-4.1-1.6-7.3c-8.2-22.5-10.9-41.2-7.6-51.8.8-2.7 1.3-5.3 1-5.7-.2-.4.5-1.4 1.7-2.2 1.1-.9 2.2-2.7 2.3-4 0-1.4.3-2.5.6-2.5 2 .1 3-.4 2.5-1.2-.3-.6-.3-1 .2-1 .4 0 1.4-1.5 2.2-3.3.8-1.7 1.7-3.4 2.1-3.7 1.2-1 7-10.5 6.9-11.4 0-.5.6-1.3 1.5-1.8s1.4-1.3 1.1-1.9c-.4-.5-.2-.9.3-.9.6 0 1.5-1.2 2.1-2.8.6-1.5 2.2-4.2 3.6-6.1 1.4-1.8 2.2-3.7 1.9-4.2-.3-.5 0-.9.6-.9s.8-.5.5-1c-.3-.6-.1-1 .4-1 1 0 6.5-7.7 6.6-9.2 0-.4.8-1.6 1.7-2.7.9-1.1 1.4-2.2 1.1-2.5-.4-.3-.1-.6.5-.6s.9-.7.5-1.7-.2-1.4.4-1c.6.4 1.4 0 1.7-.9.8-2 .8-2.1-2.6-2.9-2.2-.6-2.9-.3-3.4 1.1-.4 1.1-3.9 7-7.8 13.2-3.9 6.3-7.8 12.6-8.7 14-.9 1.5-5.3 8.7-9.7 16-4.5 7.3-8.2 13.7-8.2 14.2 0 .6-.4 1-.8 1s-2.6 3.5-4.8 7.7c-3.5 6.9-3.9 8.3-3.9 15.2.1 9.9 1.3 17.3 2.7 16.5.8-.5.9-.1.5 1.1-.7 1.7 1.8 10.7 9.8 35 1.8 5.5 3.8 12.3 4.6 15.2.7 2.9 1.5 5 1.9 4.8.3-.2.4 1.2.2 3.2-.3 2.1-.1 3.3.5 3 1.1-.7 1.1-.1 1.7 23.8.5 17.5.4 18.3-2.4 28-3.5 12.5-10.3 26.9-16.6 35.2-1.3 1.7-2.4 3.4-2.4 3.8 0 .6-1.5 3-9.4 15.3-2.6 4-5 8-5.3 9-.4.9-.9 1.9-1.3 2.2-1.8 1.4-12 19.6-11.6 20.7.3.7-.1 1-.8.7-.6-.2-2 1-2.9 2.8-4.8 9.1-7.4 13.4-8.9 15.2-1 1.1-2.4 3.2-3 4.8-.7 1.5-1.7 2.8-2.2 2.8-.4 0-.5.8-.2 1.7.4 1 .4 1.4 0 1-.4-.4-3 3-5.7 7.6-2.7 4.5-7.6 12.6-10.9 18-3.2 5.4-5.5 10.3-5.2 10.9.4.7.2.8-.4.4-.7-.4-1.2-.2-1.2.4 0 .6-.9 2.1-2.1 3.3-1.1 1.2-2.9 3.8-4 5.7-1.1 1.9-3.2 5.5-4.7 8s-3.6 6-4.7 7.9c-1.1 1.8-3.7 6-5.8 9.3-2 3.2-3.4 6.4-3.1 7 .4.6.3.8-.2.5-.8-.4-9.1 11.9-14 20.8-.6 1.1-3 4.9-5.3 8.5-3.4 5.4-8.5 13.7-14.4 23.5-4.9 8-6 10-5.8 10.4.2.2-.2.7-.7 1-.5.3-2.9 3.9-5.3 7.9-9.2 15.2-14.6 24-19.3 31.7-2.7 4.4-5.6 9.1-6.4 10.5-.9 1.4-1.5 2.7-1.4 3 0 .3-.7 1.4-1.7 2.5-1.9 2.2-7.1 10.2-7.1 10.9 0 1-8.5 14.3-10.7 16.7-1.3 1.4-2.1 2.8-1.7 3.1.3.3-.3.5-1.3.5-1-.1-1.7.2-1.6.8 0 .5-1.5 1.1-3.5 1.2-2.1.2-4.4.3-5.2.4-3.9.5-16.1-.2-15.7-.9.3-.4-1.3-.8-3.4-.8-6.1-.3-3.7 1.2 4.3 2.5 8.4 1.5 17.5 1.8 23.3.9 4.8-.7 9.8-3.2 8.7-4.3-.4-.5-.1-.5.6-.1 1.4.9 1.6-.5.2-2.2-.7-.9-.7-.9.2-.2.8.6 1.8 0 3.4-2.2 1.3-1.7 2.1-3.5 1.8-3.9-.3-.5 0-.9.5-.9.6 0 1.1-.5 1.1-1 0-.6.9-2.1 2-3.3 1.1-1.2 1.8-2.8 1.5-3.6-.3-.9-.3-1.2.1-.8 1 .9 6.5-8.4 5.7-9.7-.3-.5-.1-.6.5-.2.6.3 1.2-.2 1.4-1.1.2-1 .6-1.3 1-.8.6.9-12.1 22.7-17.3 29.8-2.1 2.9-5.1 4.5-10.4 5.5-5.5 1.2-18.9.6-27.4-1.2-17.6-3.6-54.9-17.7-54.3-20.4.1-.7-1.8-2.2-4.2-3.4-2.5-1.2-4.3-2.4-4.1-2.8.2-.4-.1-.7-.8-.7-2.5-.1-14.8-6.4-14.2-7.3.3-.5-.8-1.6-2.5-2.5-1.7-.9-2.8-1.9-2.6-2.4.3-.4 0-.8-.7-.8-1.8 0-14.7-9.3-14.7-10.5 0-.6-.3-.9-.6-.5-.6.6-4.4-2.3-4.4-3.4 0-.3 5.1 2.7 11.3 6.8 22.3 14.8 52.7 27.8 74.2 31.8 10.3 2 28.6 1.8 30.7-.3.9-.9.8-1.2-.8-1.3-1.7 0-1.7-.1.3-.9 1.2-.5 2.8-1.9 3.6-3.2 13.9-22.5 27.4-44.9 28.4-46.8.4-.8 1.1-2 1.6-2.5 1-1.1 4.5-7 7.8-13 1.2-2.2 4.2-7.2 6.7-11 2.5-3.9 5.5-8.6 6.7-10.5 3-4.7 16.3-26.6 18.7-31 1.1-1.9 2.6-4.2 3.4-5.1.8-.8 1.4-1.9 1.4-2.3 0-.4 1.1-2.2 2.5-4 1.4-1.8 2.5-3.6 2.5-4.1 0-.4 2.2-4.1 5-8.2s5-7.7 5-7.9c0-.3 2.4-4.3 5.3-9 14.6-23.7 36.4-59.2 38.2-62.2 1.4-2.4 10.5-17.4 13.6-22.5 11.8-19.1 18.8-30.6 20-32.7.8-1.4 1.6-2.7 1.9-3 .6-.6 2.3-3.3 5-8 1.1-1.9 2.4-4.2 3-5 1.4-2.4 13.3-22 16.7-27.5 2.4-4 6.4-13.1 6.9-15.5 0-.3.6-1.7 1.2-3.2 2.9-6.9 4.7-19.6 4.6-32.8 0-15.4-1.9-26.9-7.9-48-.2-.8-.9-3.5-1.6-6-.6-2.5-1.3-5.2-1.6-6-.3-.8-.7-2.1-.9-2.7-.1-.7-1.2-5.8-2.4-11.4-1.7-7.8-2.1-12.4-1.8-19.8.5-10.8 1.1-12.6 10-26.9 3.2-5.1 5.8-9.6 5.8-9.9 0-.3 1.1-2 2.4-3.7 1.2-1.7 3.1-4.7 4.1-6.6 1-1.9 2.1-3.7 2.4-4 .3-.3 1.2-1.6 2-3s4.9-8.2 9.2-15.2c4.2-7 7.9-13.4 8.2-14.2.4-.9.9-1.6 1.1-1.6.3 0 4.2 1.6 8.8 3.6zM497.6 164c-3.6 5.4-4.2 5.1-.9-.5 1.5-2.4 2.9-4.2 3.2-4 .2.3-.8 2.3-2.3 4.5zm-22.9 2.5c0 .8-.4 1.2-.8.9-.5-.2-1.5.9-2.4 2.7-.9 1.7-1.9 2.8-2.2 2.5-.6-.6 3.6-7.6 4.6-7.6.4 0 .8.7.8 1.5zm-7.6 10.4c-1.1 1.5-1.8 3.1-1.4 3.5.3.3.1.6-.7.6-1 0-1 .4.1 1.7 1.2 1.4 1.2 1.5 0 .9-1.7-1.1-3.2 1.2-2.6 3.9.3 1.1.2 1.4-.1.7-.5-1-.9-1-2-.1-.8.6-1.4 1.7-1.4 2.3 0 .6-.9 1.8-1.9 2.6-1.1.7-1.8 1.7-1.5 2.2.3.4 0 .8-.6.8s-.8.5-.4 1.2c.4.6.3.8-.3.5-.6-.4-3.4.9-6.3 2.8s-5.9 3.5-6.7 3.5c-.8 0-1.1.5-.7 1.2.4.7.3.8-.4.4-.6-.4-3.1 0-5.6.8-4.5 1.5-17 3.9-40.1 7.6-16.8 2.7-32.1 6.4-31.8 7.6.1.6-1.1.8-2.8.6-1.8-.3-2.9 0-2.9.7s-.4 1-.8.7c-1.2-.7-11.5 3.3-12.4 4.7-.4.7-.8.9-.8.5s-2.6.8-5.7 2.6c-3.2 1.8-5.7 3.9-5.5 4.6.2.7-.3 1-1.1.7-1.7-.6-10.1 6.6-9 7.7.5.4.3.7-.2.6-2.1-.5-3.5.1-3.5 1.3 0 .7-.9 1.8-2 2.4-2.3 1.5-10.6 12.5-10.2 13.6.1.5-.2.6-.8.2-.9-.5-1.1-.2-1 2 0 .3-.9 1.5-2 2.7-1.1 1.2-1.8 2.8-1.5 3.6.2.7 0 1-.5.7-.5-.3-2.1 1.6-3.5 4.2-3.4 6.4-5.7 10.3-7.7 13.2-.9 1.3-1.4 2.9-1.1 3.4.4.6.1.7-.7.2-1-.6-1.2-.4-.7.9.4.9.3 1.5-.2 1.2-1.2-.8-5.3 6.3-4.5 7.7.4.7.3.9-.1.4-.5-.4-1.7.5-2.6 2-1.4 2.1-1.5 2.9-.6 3.6.8.6.6.7-.5.3-1-.3-1.8 0-1.8.6s-1.6 3.5-3.5 6.4c-1.9 2.9-3.5 5.7-3.5 6.3 0 .6-.5 1.1-1.2 1.1-.6 0-.8.3-.5.6.4.4-.5 2-1.9 3.7-1.4 1.6-2.3 3.6-2 4.3.3.8.1 1.3-.4 1.1-.5-.1-2.4 1.8-4.1 4.3-4 5.8-2.9 2.4 1.4-4.3 1.9-2.9 5.3-8.4 7.7-12.2 2.4-3.9 4.7-7.3 5.2-7.6.6-.3.9-.9.8-1.3-.2-.7 19.7-33.7 29.8-49.5 6.7-10.6 19.4-23.3 29.4-29.5 16.5-10.2 33.4-15.4 66.8-20.6 42.9-6.7 51.1-10.5 62.2-29 2.9-4.9 5.7-9 6.1-9 .5 0-.1 1.3-1.2 2.9zm2.7 2.6c-.3.3-.9-.2-1.2-1.2-.6-1.4-.5-1.5.5-.6.7.7 1 1.5.7 1.8zm6.5-.8c-.3.7-.6 1.3-.8 1.3-.2 0-.5-.6-.8-1.3-.3-.8.1-1.4.8-1.4.7 0 1.1.6.8 1.4zm9 4.8c-.3.9-.8 1.4-1 1.1-.3-.3-.2-.9.2-1.5.9-1.6 1.5-1.3.8.4zm-13.8 2.4c-.8 1.7-2.1 3.3-2.7 3.7-.8.5-.7-.1.3-1.6.8-1.4 1.9-3.1 2.3-3.8 1.5-2.5 1.6-1.1.1 1.7zm-4.5 7.5c0 .2-.8 1-1.7 1.7-1.6 1.3-1.7 1.2-.4-.4 1.3-1.6 2.1-2.1 2.1-1.3zm-5 5.4c0 .5-1.5 1.9-3.2 3.1l-3.3 2.3 3-3c3.3-3.4 3.5-3.5 3.5-2.4zm9 6.7c-1.9 1.9-3.7 3.5-4.1 3.5-.5 0 .8-1.6 2.8-3.5 2-1.9 3.9-3.5 4.1-3.5.3 0-.9 1.6-2.8 3.5zm-22.3.9c0 .8-.6 1.2-1.5.9-1.1-.5-1.1-.7 0-1.4.7-.5 1.3-.9 1.4-.9 0 0 .1.6.1 1.4zm-20 6.2c-.3.3-1.2.4-1.9.1-.8-.3-.5-.6.6-.6 1.1-.1 1.7.2 1.3.5zm-6 1c-.3.3-1.2.4-1.9.1-.8-.3-.5-.6.6-.6 1.1-.1 1.7.2 1.3.5zm-6.4 1.1c-.7.2-1.9.2-2.5 0-.7-.3-.2-.5 1.2-.5s1.9.2 1.3.5zm39.7.3c-.8.5-2.2.9-3 .9-1 0-.8-.3.5-.9 2.7-1.2 4.3-1.2 2.5 0zm-48.3.6c-.3.3-1.2.4-1.9.1-.8-.3-.5-.6.6-.6 1.1-.1 1.7.2 1.3.5zm-4.4 1.1c-.7.2-1.9.2-2.5 0-.7-.3-.2-.5 1.2-.5s1.9.2 1.3.5zm-6 1c-.7.2-1.9.2-2.5 0-.7-.3-.2-.5 1.2-.5s1.9.2 1.3.5zm50.4-.1c-.3.3-1.2.4-1.9.1-.8-.3-.5-.6.6-.6 1.1-.1 1.7.2 1.3.5zm-56 1c-.3.3-1.2.4-1.9.1-.8-.3-.5-.6.6-.6 1.1-.1 1.7.2 1.3.5zm-3.8.8c-.2.2-1.7.6-3.4 1-2.2.5-2.6.4-1.5-.4 1.4-.9 5.9-1.5 4.9-.6zm-9.2 2.2c-.3.3-1.2.4-1.9.1-.8-.3-.5-.6.6-.6 1.1-.1 1.7.2 1.3.5zm-16.2 5.2c-.3.3-1.1 0-1.8-.7-.9-1-.8-1.1.6-.5 1 .3 1.5.9 1.2 1.2zm-4 1.4c-.9.6-1.9.7-2.2.4-.4-.3-.1-.6.6-.6s.9-.4.6-1c-.4-.6.1-.7 1.1-.3 1.5.6 1.5.7-.1 1.5zm-3.5 1.2c0 .2-.7.7-1.6 1-.8.3-1.2.2-.9-.4.6-1 2.5-1.4 2.5-.6zm41.7.2c-.3.3-1.2.4-1.9.1-.8-.3-.5-.6.6-.6 1.1-.1 1.7.2 1.3.5zm-57.7 8.9c-1.9 1.4-3.6 2.5-3.9 2.5-1 0 5.3-4.9 6.3-5 .6 0-.5 1.1-2.4 2.5zm34 0c-1.4.8-2.9 1.4-3.5 1.4-.5 0 .1-.6 1.5-1.4 1.4-.8 3-1.4 3.5-1.4.6 0-.1.6-1.5 1.4zm-7 3c0 .6-10.8 7.5-11.8 7.5-.6 0 10.7-7.8 11.6-7.9.1-.1.2.1.2.4zm-35.6 2.3c.3.5-2 3.3-5.2 6.3-3.1 3-4.5 4.1-3.2 2.4 1.4-1.6 3.1-3.4 3.8-3.8.7-.5.9-1.4.6-2-.4-.7-.4-.9.1-.5 1 1 3.7-1.1 2.9-2.3-.3-.5-.3-.9 0-.9s.7.4 1 .8zm20.5 8.5c-.2.1-1.5 1.1-2.9 2.2l-2.5 2 1.9-2.3c1.1-1.2 2.4-2.2 2.9-2.2.6 0 .8.1.6.3zm-36 6.5c.7 1.3.6 1.9-.2 1.9-.7 0-1.3-.9-1.3-1.9 0-1 .1-1.8.3-1.8.1 0 .7.8 1.2 1.8zm27.3 1.5c-1.2 1.3-1.9 2.7-1.5 3.2.5.4.2.5-.5.1-1.1-.6-.8-1.3.9-3.2 1.2-1.3 2.5-2.4 2.7-2.4.3 0-.4 1-1.6 2.3zm-7.4 8.8c-2.3 2.4-3.6 3.5-2.8 2.4 2.1-3.1 6.3-7.5 6.7-7.2.2.2-1.6 2.4-3.9 4.8zm-5.7 7.8c-1.2 1.6-2.1 3.3-2.1 3.9 0 .5-.7 1.6-1.6 2.3-1.1.9-.9.1.6-2.6 2.4-4.3 4-6.5 4.7-6.5.2 0-.5 1.3-1.6 2.9zm-26.9 5.6c-.8 1.6-.9 1.6-1.5.1-.4-1-.3-1.5.3-1.1.6.3 1 .1 1-.6s.3-1 .6-.6c.3.3.2 1.3-.4 2.2zM318 295c-.6 1.1-1.3 2-1.6 2-.2 0 0-.9.6-2s1.3-2 1.6-2c.2 0 0 .9-.6 2zm-24.9 2.3c-1 .9-1.1.8-.5-.6.3-1 .9-1.5 1.2-1.2.3.3 0 1.1-.7 1.8zm-2.1 3.8c-.7 1.1-1.4 1.8-1.7 1.5-.3-.3 0-1.2.7-2.1 1.8-2.1 2.3-1.9 1 .6zm-5.4 8.1c.5.7.3.8-.5.4-.8-.5-1.1-.3-.9.5.4 1.9-5 10.9-6.5 10.9-.8 0-.9-.3-.1-.8 1.7-1.1 6.4-8.9 5.7-9.5-.5-.6.4-2.7 1.2-2.7.2 0 .7.5 1.1 1.2zm23.1 1.3c0 .8-.4 1.2-.9.9-.5-.3-.6-1-.3-1.5.9-1.3 1.2-1.1 1.2.6zm-2.6 4.8c-1 .9-1.1.8-.5-.6.3-1 .9-1.5 1.2-1.2.3.3 0 1.1-.7 1.8zm-3.5 4.5c-1.7 1.6-1.8 1.6-.5-.5.7-1.2 1.5-2 1.8-1.7.3.2-.3 1.2-1.3 2.2zm-28.2.8c.3.8.2 1.2-.4.9-.6-.3-1-1-1-1.6 0-1.4.7-1.1 1.4.7zm24.9 5.4c-.3 1.1-.9 2-1.5 2-.5 0-.4-.9.2-2 .6-1.1 1.2-2 1.4-2 .2 0 .2.9-.1 2zm-5.3 8c-.6 1.1-1.3 2-1.6 2-.2 0 0-.9.6-2s1.3-2 1.6-2c.2 0 0 .9-.6 2zm-24.3 1.2c-.3.8-.6.5-.6-.6-.1-1.1.2-1.7.5-1.3.3.3.4 1.2.1 1.9zm-1.7 3.7c-.5 1.1-1.5 2.3-2.1 2.7-.6.3-.3-.5.6-2 2-3 3-3.5 1.5-.7zm22.7 3.4c-.1.5-1.1 1.1-2 1.3-1.4.2-1.5-.1-.6-1.7 1-2 3.3-1.6 2.6.4zm-34.4.4c-.7.2-1.3.9-1.3 1.4 0 .5-.8 1.8-1.7 2.9-1 1.1-1.6 2.2-1.3 2.5.3.2-.5 1.4-1.7 2.7-2.9 3.2-8.5 13.7-7.8 14.8.3.6 0 .7-.8.4-.9-.3-1.9.6-2.7 2.5-.7 1.7-1.8 3.1-2.4 3.1-.6 0-.4.5.4 1s1 1 .3 1c-1.2 0-8.4 10.3-8.7 12.5-.1.8-.9 2.2-1.7 3.2-2.6 3-5.9 9-5.4 9.6.3.4.2.5-.2.2-.9-.7-4.3 4.6-3.7 5.7.3.4-.2 1.1-1 1.4-.9.3-1.3 1-1 1.5.3.5.1.9-.5.9-.5 0-.8.9-.6 1.9.2 1.2-.1 1.8-.8 1.5-.7-.2-2.1 1.1-3.2 2.8-6.2 10.5-7.4 12.6-7 13.2.3.3.2.4-.2.1-1.1-.8-5.5 7.4-4.7 8.8.4.6.4.9-.1.5-1.1-1.1-4.8 4-3.9 5.4.4.7.4 1-.1.6-1-.9-4.6 4.2-6.8 9.5-.9 2-2.7 4.9-4.1 6.4-1.4 1.5-2.6 3.6-2.6 4.6 0 1-.4 1.5-1 1.2-.9-.5-1.5 2.3-1.1 4.7 0 .5-.4.7-1 .5-1.3-.3-7.2 10-6.4 11.3.4.6-.1.7-1.1.3-1.4-.5-1.6-.3-1.1 1.1.4.9.3 1.5-.2 1.2-.8-.5-2.7 2.6-1.9 3.1.2.1-.4.8-1.3 1.5s-3.1 4-4.9 7.3c-1.8 3.3-4.1 6.9-5.1 8.1-1.1 1.1-1.6 2.4-1.2 2.7.3.4 0 .7-.7.7s-1.1.3-.7.6c.3.4 0 1.3-.8 2-3 3.1-2.2 1 2.9-7.4 2.9-4.8 9.7-15.9 15.1-24.7 5.4-8.8 10.7-17.5 11.8-19.3 1-1.7 2.2-3.2 2.6-3.2.4 0 .8-.6.8-1.3.1-1.6 54.1-89.9 56-91.4.8-.6 1.3-1.4 1.2-1.8-.5-1.5 11.7-20.4 13.1-20.4 1 0 1.1.2.3.6zm28.8 6.1c-1.2 1.7-2.1 3.6-2.2 4.4 0 .9-.2.9-.5.1-.5-1.1 3.7-8.5 4.4-7.8.3.2-.5 1.7-1.7 3.3zM275 365c-.6 1.1-1.3 2-1.6 2-.2 0 0-.9.6-2s1.3-2 1.6-2c.2 0 0 .9-.6 2zm-26.9 5.7c-1.5 2.8-4 5.9-4.1 5 0-.8 4.1-6.7 4.7-6.7.2 0-.1.8-.6 1.7zm21.8 3c-1.2 2.1-2.7 4.2-3.2 4.8-1.1 1.1.9-2.9 3.1-6.3 2.4-3.7 2.5-2.5.1 1.5zm-27.1 6.2c-.7 1.2-1.6 2.1-2.1 2.1-.4 0 0-1.1 1-2.4 2.2-2.9 3-2.7 1.1.3zm-3.4 5.2c-.3.5-1 .7-1.5.3-.5-.3-.7-1-.3-1.5.3-.5 1-.7 1.5-.3.5.3.7 1 .3 1.5zm19.6 7.3c0 .8-.7 1.6-1.5 2-1.2.4-1.3.2-.2-1.4 1.4-2.4 1.7-2.5 1.7-.6zm-25 1.6c-.6 1.1-1.2 2-1.4 2-.2 0-.2-.9.1-2 .3-1.1.9-2 1.5-2 .5 0 .4.9-.2 2zm21.4 4.4c-.3.9-1 1.6-1.5 1.6-.6 0-.5-.9.1-2.1 1.3-2.4 2.4-2 1.4.5zm-23.4-1.1c0 .2-1 1.2-2.1 2.3-2.2 1.9-2.2 1.9-.8-.4 1.2-1.9 2.9-3 2.9-1.9zm18.6 8.7c0 1-.2 1.7-.5 1.5-.2-.3-1.1.1-1.9.8-1.1.9-1.1.4.2-1.6 2.2-3.2 2.2-3.2 2.2-.7zm-30.9 11.2c-1.4 2.3-3.1 4.4-3.8 4.7-.8.2-.7-.3.4-1.3 1-1 2.4-3.1 3.2-4.7.9-1.6 1.8-2.9 2.1-2.9.3 0-.5 1.9-1.9 4.2zm23.9-.4c-.9 1.7-2.1 3.4-2.7 3.8-.6.3 0-1.2 1.2-3.4 2.7-4.7 3.8-4.9 1.5-.4zm-29.6 8.9c.7-.7.5 0-.5 1.5-.9 1.6-1.9 2.8-2.2 2.8-.2 0-.1-.4.2-1 .3-.5.1-2-.5-3.2-1-2-1-2.1.3-.6 1.1 1.4 1.6 1.5 2.7.5zm21.9 3.4c-1.8 1.9-2.6 2.5-1.9 1.4 2.4-3.5 4.3-5.5 4.7-5.1.2.2-1.1 1.9-2.8 3.7zm-26.9 6.3c0 .2-.8 1-1.7 1.7-1.6 1.3-1.7 1.2-.4-.4 1.3-1.6 2.1-2.1 2.1-1.3zm21.4 2.6c-1 1.6-2 2.8-2.2 2.6-.4-.5 2.8-5.6 3.5-5.6.2 0-.4 1.3-1.3 3zm-3.3 5.7c-.5 1-1.7 2.7-2.6 3.8-1.6 1.9-1.6 1.9-.4-.5 1.3-2.7 2.9-5 3.6-5 .2 0-.1.8-.6 1.7zm-23.1-.3c0 .2-.8 1-1.7 1.7-1.6 1.3-1.7 1.2-.4-.4 1.3-1.6 2.1-2.1 2.1-1.3zm16.1 11.3c-1.2 2-1.4 1.4-.5-1.2.4-.9.9-1.4 1.1-1.1.3.2 0 1.3-.6 2.3zm-24.1 1.1c0 .5-.7 1.7-1.5 2.8-1.4 1.8-1.4 1.7-.4-.9 1.2-2.7 1.9-3.4 1.9-1.9zm-10.6 17.7c-.9 1.4-1.8 2.5-2.1 2.5-.5 0 .5-1.8 2-3.8 1.7-2.2 1.8-1.3.1 1.3zm20.9 4.5c-.3 1.2-.8 1.9-1.1 1.6-.5-.6.5-3.6 1.2-3.6.2 0 .2.9-.1 2zm-27.4 6.2c-.5 1-1.1 1.8-1.2 1.8-.2 0-.3-.8-.4-1.8-.1-1 .5-1.9 1.2-1.9 1 0 1.1.5.4 1.9zm23.5.2c-1.1.8-1.4 1.8-.9 2.7.5.8.5 1.1 0 .7-.4-.4-1.5-.2-2.3.5-.9.6-.5-.4.9-2.5 1.3-2 2.7-3.4 3.2-3.1.4.3 0 1.1-.9 1.7zm-30.6 2.6c-.7 1-1.4 1.7-1.7 1.5-.4-.4 1.8-3.5 2.5-3.5.2 0-.1.9-.8 2zm2.6 4c-3.4 5.2-4.1 5.2-1.2 0 1.3-2.2 2.6-4 3.1-4 .4 0-.5 1.8-1.9 4zm21.9 2.5c-.3.9-.8 1.4-1 1.1-.3-.3-.2-.9.2-1.5.9-1.6 1.5-1.3.8.4zm-30.6 1c0 .8-.4 1.2-.9.9-.5-.3-.6-1-.3-1.5.9-1.3 1.2-1.1 1.2.6zm27.4 4.8c-1.3 1.2-2 1.5-1.5.7 1.2-2.2 2.8-3.9 3.3-3.4.3.3-.6 1.5-1.8 2.7zm-25.1 2.1c0 .3-.4.8-1 1.1-.5.3-1 .1-1-.4 0-.6.5-1.1 1-1.1.6 0 1 .2 1 .4zm-5.2 8.6c-.7 1-1.4 1.7-1.7 1.5-.4-.4 1.8-3.5 2.5-3.5.2 0-.1.9-.8 2zm22.8.8c-1.7 1.6-1.8 1.6-.5-.5.7-1.2 1.5-2 1.8-1.7.3.2-.3 1.2-1.3 2.2zm-25.6 4.1c-.5 1.1-1.5 2.3-2.1 2.7-.6.3-.3-.5.6-2 2-3 3-3.5 1.5-.7zm-8.5.8c-.1 1.1-.9 1.7-2 1.5-1-.2-1.4.1-1 .7.3.6.2 1.1-.3 1.1s-1.5 1.2-2.2 2.7c-.8 1.6-2.3 4.1-3.3 5.6-1.6 2.3-1.7 3-.6 4.5 1.1 1.4 1.1 1.5-.1.5-1.1-1-1.9-.4-4.5 3.5-2.2 3.2-2.9 5.1-2.2 5.9.9 1.3.8 1.4-1.4 1.7-1.2.1-11.3 15.6-10.2 15.6.4 0-.3 1-1.4 2.2-3.2 3.7-6.5 9.7-5.8 10.8.3.6-.1.7-1 .4-1.4-.6-1.4-.9-.1-2.8.9-1.1 3.2-5 5.3-8.5l5.4-9c.9-1.4 6-9.8 11.4-18.6 9.8-16.1 12.2-19.5 13.6-19.5.4 0 .6.8.4 1.7zm32.5-1.3c0 .2-.8 1-1.7 1.7-1.6 1.3-1.7 1.2-.4-.4 1.3-1.6 2.1-2.1 2.1-1.3zm-3.9 5.9c-1 .9-1.1.8-.5-.6.3-1 .9-1.5 1.2-1.2.3.3 0 1.1-.7 1.8zm-25.3 3.2c-.6 1.4-1.3 2.3-1.5 2.1-.5-.5 1.5-4.6 2.2-4.6.3 0-.1 1.1-.7 2.5zm22.6 1c-.9 1.4-1.8 2.5-2.1 2.5-.5 0 .5-1.8 2-3.8 1.7-2.2 1.8-1.3.1 1.3zm-26.6 5.5c-.7 1-1.4 1.7-1.7 1.5-.4-.4 1.8-3.5 2.5-3.5.2 0-.1.9-.8 2zm21.6 2.5c-.9 1.4-1.8 2.5-2.1 2.5-.5 0 .5-1.8 2-3.8 1.7-2.2 1.8-1.3.1 1.3zm-29.9 2.4c.3.5.2 1.2-.3 1.5-.5.3-.9-.1-.9-.9 0-1.7.3-1.9 1.2-.6zm293.4 10.2c-3.4 5.5-6.3 9.8-6.5 9.6-.6-.5 4.6-9.7 6.8-12.1.9-1 1.5-2.3 1.2-2.8-.3-.4 0-.8.7-.8s1-.3.6-.6c-.6-.7 1.3-3.3 2.5-3.4.4 0-2 4.5-5.3 10.1zm-290.6-6.6c-.3.9-.8 1.4-1 1.1-.3-.3-.2-.9.2-1.5.9-1.6 1.5-1.3.8.4zm-3.2 4.8c-1 .9-1.1.8-.5-.6.3-1 .9-1.5 1.2-1.2.3.3 0 1.1-.7 1.8zm-2 4c-1 .9-1.1.8-.5-.6.3-1 .9-1.5 1.2-1.2.3.3 0 1.1-.7 1.8zm-4.3 7.1c-1.3 1.9-2.4 3.3-2.6 3.1-.5-.4 3.7-6.5 4.4-6.5.2 0-.6 1.5-1.8 3.4zm291.6-.3c-.3.5-1 .7-1.5.3-.5-.3-.7-1-.3-1.5.3-.5 1-.7 1.5-.3.5.3.7 1 .3 1.5zm1 3.1c-.4.7-2.2 3.5-3.9 6.3-1.8 2.7-6.2 10.1-10 16.2-3.7 6.2-7.1 11.3-7.5 11.3-.3 0-.7.6-.7 1.2-.1 1.3-38.7 64.7-40 65.7-.5.3-.9 1.1-1 1.8-.3 1.6-7.4 12.6-8.5 13.4-.6.3-.8.8-.7 1 .3.4-5.1 9.9-5.6 9.9-.1 0-.5-.9-.8-1.9-.3-1.3-.1-1.8.8-1.5.7.3 1.6-.4 2-1.5.3-1.2 1.3-2.8 2.1-3.6.9-.8 1.1-1.5.5-1.5-.5 0 .2-1.3 1.7-3 1.5-1.6 3.6-4.6 4.7-6.7 1.1-2.1 2.4-4.1 3-4.5.5-.4.6-.8.2-.8-.4 0 .4-1.6 1.8-3.5 1.5-1.9 2.4-3.9 1.9-4.6-.4-.7-.3-.9.2-.6 1.1.6 5.7-5.7 5.7-7.8 0-.8.4-1.2.9-.9.4.3.8 0 .8-.5 0-2 .3-2.6 1.9-3.9 1.3-1 1.3-1.1.1-.9-.8.2-1.2.2-.7 0 .4-.3.4-1 .1-1.5-.5-.7-.2-.8.5-.4 1.4.9 3-.9 6.3-7.4 1.3-2.5 3.1-5.4 4-6.4 1-1.1 1.8-2.6 1.8-3.3 0-.7.4-1.3.8-1.3 1.3 0 3.3-5 2.6-6.3-.4-.7-.4-.9.1-.5 1.1 1.1 4.8-4 3.9-5.4-.4-.7-.4-1 .1-.6 1 .9 4.6-4.2 6.8-9.5.9-2 2.7-4.9 4.1-6.4 1.4-1.5 2.6-3.6 2.6-4.6 0-1 .5-1.5 1-1.2.9.5 1.5-2.3 1.1-4.7 0-.5.4-.7 1-.5 1.2.2 6-7.8 5.2-8.7-.4-.3-.1-.6.6-.6s1.1-.7.8-1.4c-.4-.9-.1-1.3.6-1 1.8.6 4.8-5.1 3.3-6.6-.8-.8-.7-1 .5-.5 1 .4 2 .2 2.4-.4.9-1.5 1.8-1.4.9.1zm-274.7 6.5c-1.3 2.1-2.6 4.5-3 5.3-.5 1.3-.6 1.3-.6 0-.1-1.5 4.5-9 5.4-9 .3 0-.5 1.7-1.8 3.7zm-25.7 2.7c0 .2-.8 1-1.7 1.7-1.6 1.3-1.7 1.2-.4-.4 1.3-1.6 2.1-2.1 2.1-1.3zm-12.5 7.6c.4.6.1.9-.7.8-.7-.2-2.1 1.4-3.1 3.5-1.1 2.1-2.1 3.6-2.4 3.4-.7-.7 3.6-8.7 4.7-8.7.5 0 1.2.5 1.5 1zm26.5 8.2c-2.3 3.5-2.3 3.1-.1-1.5.8-1.5 1.6-2.5 1.9-2.2.2.2-.5 1.9-1.8 3.7zm-31.5 5c.4 4.5 4.8 13.4 6.5 13 1.1-.3 1.1 0 .1 1.2s-.9 1.7.9 2.6c1.1.6 2.4.9 2.9.6.5-.3 1.6.5 2.5 1.9 1.1 1.7 1.3 2.6.4 3.1-.6.4-.8.3-.4-.4.3-.6.2-1.3-.3-1.6-1.5-1-2 1.9-.6 3.7.7 1 2.3 2 3.5 2.2 1.3.2 2.5.7 2.9 1.1.3.4-.2.4-1.1.1-2.5-.9-2.2 0 1.1 3.6 1.6 1.8 4.1 4.5 5.5 6.2 1.4 1.6 2.6 2.5 2.6 1.9 0-.7-1.6-2.9-3.5-5-1.9-2.2-3.5-4.3-3.5-4.7 0-.5 2 1.5 4.5 4.5 2.5 2.9 4.1 5.4 3.5 5.6-.5.2-.7.8-.4 1.3.4.6 1.1.6 1.9-.1 1-.8 1.5-.8 2.1.1.4.8.3.9-.4.5-1.6-1-1.5 1.7.1 3.3 1 1 .9 1.1-.5.6-2.6-1-17.6-18.2-22.9-26.3-5.1-7.8-8.9-16.6-8.9-20.9 0-3.6 1.2-2.1 1.5 1.9zm6.2 2.5c-.3 1-.5.4-.5-1.2 0-1.7.2-2.4.5-1.8.2.7.2 2.1 0 3zm23.3-3.3c0 .2-.7.9-1.5 1.6-1.3 1.1-1.4 1-.9-.4.5-1.4 2.4-2.3 2.4-1.2zm-4 5.5c-.8 1.6-.4 2.6 2.2 5.5 1.7 1.9 3.6 3.3 4.1 2.9.6-.3.7-.1.3.5-.7 1.2 6 8.7 7.8 8.7.6.1 1 .6.9 1.2-.2.7.6 1.4 1.6 1.8 1.1.3 2.7 1.7 3.6 3.1.9 1.4 2.3 2.3 3 2 .9-.3 1.2 0 .8 1-.3.7-.1 1.4.4 1.4s2.7 1.8 4.9 4c2.1 2.2 4.5 3.8 5.2 3.5.7-.3 1.1-.1.8.4-.7 1 6.2 6.7 7.5 6.3.5-.1.8.4.7 1-.2.7.4 1.1 1.2 1 .8-.2 1.2 0 .8.4-.7.6 8.7 8.4 10.2 8.4.3 0 1.5.8 2.6 1.7 4.4 4.1 16.5 11.4 17.6 10.7.6-.4.8-.3.5.3-.4.6 0 1.6.8 2.3.8.7 1.5.9 1.5.6 0-.4 1.5.4 3.3 1.8 1.8 1.4 4.3 2.9 5.7 3.4 1.3.5 1.9 1.1 1.4 1.4-1.7 1.1-37.8-23-50.4-33.8-3-2.5-7-5.9-8.8-7.4-7.6-6.4-23.7-21.9-27.8-26.7-3.8-4.5-4.3-5.5-3.4-7.3.6-1.1 1.3-2 1.6-2 .2 0 0 .9-.6 1.9zm265.5 4c.3.5.2 1.2-.3 1.5-.5.3-.9-.1-.9-.9 0-1.7.3-1.9 1.2-.6zM146 619.5c2.9 3.8 7.3 9.1 9.8 11.7 3.3 3.5 4.3 5.1 3.5 5.9-.8.8-1.3.7-1.8-.2-.5-.8-.4-1 .3-.5 1.6.9 1.5-.7 0-2.2-1.6-1.6-3.1-1.5-2.2 0 .4.7-.3.4-1.5-.7s-1.8-2.1-1.2-2.3c.5-.2.3-1.1-.6-2.2-.9-1-2.1-1.6-2.6-1.3-.6.4-.8-.1-.4-1 .3-1 .2-1.7-.3-1.7s-1.2-.9-1.5-2.1c-.4-1.3-1.2-1.8-2.1-1.5-.9.3-1.2.1-.9-.4.3-.6 0-1.9-.8-3.1-.9-1.2-1.8-1.6-2.1-1-.4.5-.2 1.2.4 1.6.5.3 1 1.1 1 1.8 0 .6-.6.2-1.4-.8-.8-1.1-1.2-2.3-1-2.7.3-.5-.1-.8-.8-.8-1 0-.9-.3.2-1 1.2-.7 1.2-1.2-.4-2.9-1-1.1-2.4-1.8-3-1.4-.6.4-.5-.1.3-1 1.2-1.5.9-2.1-1-1.9-.4.1-.5-.9-.2-2.1.4-1.8.3-1.9-.7-.7-.9 1.2-1 1.1-.5-.9.4-1.4.3-2.1-.2-1.8-.6.4-1-.7-1.1-2.4-.1-2.4.7-1.5 3.7 4.8 2.1 4.3 6.2 10.9 9.1 14.8zm4.6-2.9C189.2 653 236 681.9 281 697.1c11.2 3.8 11.3 3.9 5.5 3.3-14.3-1.5-32.1-6.5-47-13.3-18.4-8.3-42.1-22.3-41-24.1.3-.5 0-.8-.7-.5-1.4.6-14.1-9.1-26.3-20-8.6-7.7-29.2-31.5-27.3-31.5.2 0 3.1 2.5 6.4 5.6zm-3 17.6c1 1.2 1.3 1.8.7 1.4-.7-.4-1.3-.2-1.3.3 0 1 1.3 1.5 3.2 1.3.3-.1 1.2.6 2 1.6 1.2 1.5 1.1 1.6-.4.3-2.9-2.2-2-.1 1.1 3 1.6 1.5 3.3 2.4 3.7 2.1.4-.4.4-.2 0 .5-.3.7.2 1.4 1.4 1.8 1.1.3 2 1.1 2 1.6 0 .6.5.7 1 .4.6-.4.7-1.2.4-1.8-.4-.7-.3-.8.2-.4.5.5.9 1.4.9 2 .1.7.7 1.1 1.4.9 1.7-.4 7.6 4.7 7.6 6.7 0 .9.8 1.5 1.8 1.5.9-.1 1.4.3 1 .9-.4.6 0 .8 1 .4.9-.3 1.9-.1 2.3.5.4.7.3.8-.4.4s-1.2-.2-1.2.5.8.9 2.1.6c1.6-.4 1.8-.3.8.9-1.3 1.6-3.7.1-19.2-12.4-10.5-8.4-17.3-15-16.3-15.9.3-.3.6-.1.6.5 0 .7.8 1.2 1.8 1.1 1 0 1.2-.3.5-.6-.7-.2-1.3-.9-1.3-1.4 0-1.4.5-1.1 2.6 1.3zm15.9 6.5c-.3.9 0 1.3.7 1 .7-.2 3.6 1.8 6.3 4.4 2.8 2.7 8.3 7.4 12.3 10.5 3.9 3.2 7.2 6.1 7.2 6.6 0 1-4.5-2.1-9.2-6.5-1.6-1.5-3.2-2.7-3.5-2.7-1.2 0-5.2-3.8-4.6-4.4.3-.3-.1-.6-1-.6s-1.7-.7-1.7-1.6c0-.8-.5-1.2-1-.9-.6.3-1.3-.1-1.6-.9-.3-.9-1.1-1.3-1.7-.9-.5.3-.7.1-.4-.4.4-.6-.2-1.3-1.3-1.6-1.1-.3-1.9-1.1-1.8-1.9.2-.7-.2-1.2-.9-1.1-.7.2-1-.4-.6-1.2.4-1.2.8-1.3 2-.4.7.7 1.1 1.9.8 2.6zm-7.4 1c1.3 1.6 1.2 1.7-.3.4-1.7-1.3-2.2-2.1-1.4-2.1.2 0 1 .8 1.7 1.7zm24.4 21.3c-.3.5.1 1 1 1 1 0 1.3-.5.9-1.2s-.3-.8.4-.4c.6.4.8 1.4.5 2.3-.5 1.3-.2 1.5 1.1 1 1-.4 1.5-.3 1.1.3-.3.5.4 1.4 1.5 2 1.3.7 2 .7 2 0 0-.5-.5-1-1.2-1-.6 0-.9-.3-.6-.6.3-.3 3.2 1.2 6.3 3.3 3.2 2.1 7.4 4.8 9.4 5.9 2 1.2 3.6 2.8 3.6 3.5 0 .7.6 1.4 1.4 1.7.9.3 1.1 0 .6-.8-.5-.9-.4-1.1.3-.6.7.4 1.2 1.5 1.2 2.4 0 1.5.2 1.5 1 .2s1-1.3 1 .2c0 .9.4 2 1 2.3.5.3.8 0 .7-.7-.2-.7-.2-1 0-.5.3.4.9.5 1.4.2.5-.4.6 0 .4.7-.4.9 3.4 3.3 11.5 7.3 6.7 3.3 11.6 6.1 11.1 6.3-1.1.4-21.2-9.7-26.6-13.4-2-1.3-3.8-2.4-4-2.4-.5 0-13.6-7.9-14.4-8.6-.2-.2-.2-.6.1-.9.3-.3 1.7.4 3.1 1.6 1.5 1.1 2.7 1.7 2.7 1.2-.1-1.1-7.5-6.3-9.1-6.3-.7 0-.5.6.7 1.5 1 .8 1.5 1.5 1.1 1.5-1.6 0-12.7-8.3-12.1-9.1.3-.5.7-.9 1-.9.3 0 .2.4-.1 1zm50 6c-.5.8 4.9 4 6.7 4 .6 0 2.2.9 3.8 2 1.5 1.1 3 1.7 3.4 1.3.3-.3.6-.1.6.6 0 .8.6 1.1 1.6.7.8-.3 1.3-.2 1 .2-.2.4 1.8 1.8 4.5 3.1s4.8 2.6 4.5 2.8c-.6.6-17-7.7-17.8-9.1-.4-.6-.8-.7-.8-.3 0 .6-10-4.3-11.8-5.8-.2-.1.9-.3 2.2-.3 1.4 0 2.3.4 2.1.8zm32.3 16.3c.6 0 1.2.4 1.2.9 0 1.2-1.1.9-4-.8-1.7-1-1.8-1.3-.5-.8 1.1.3 2.6.7 3.3.7zm13.8 6.5c-.6.6-11.5-4.1-11.1-4.8.2-.3 2.9.5 5.9 1.9 3 1.4 5.3 2.7 5.2 2.9zm3.4.2c0 .5-.5 1-1.1 1-.5 0-.7-.5-.4-1 .3-.6.8-1 1.1-1 .2 0 .4.4.4 1zm9.7 3.1c3.5 1.2 6.2 2.4 6 2.6-.2.2-3.7-.7-7.8-2.1-4.1-1.3-6.8-2.4-6-2.5.8-.1 4.3.9 7.8 2zm49 2.4c0 .8-.4 1.2-.9.9-.5-.3-.6-1-.3-1.5.9-1.3 1.2-1.1 1.2.6zm-36.2 1.5c2.5 1.1-.1 1.1-3.5 0-2-.6-2.1-.8-.5-.8 1.1 0 2.9.3 4 .8z"/><path d="M529 92.4c0 .2.8 1 1.8 1.7 1.5 1.3 1.6 1.2.3-.4s-2.1-2.1-2.1-1.3zM450 514.9c0 .5.5 1.3 1 1.6.6.3 1 .2 1-.4 0-.5-.4-1.3-1-1.6-.5-.3-1-.2-1 .4zM243 699.4c0 .2 4.2 2 9.3 4.1 5 2.1 10.6 4.3 12.2 5 2.7 1.2 15.3 5.3 21.5 7 1.4.4 2.2.4 1.9.1-.4-.4-6.9-2.9-14.5-5.5-18.5-6.5-25.8-9.4-26.2-10.3-.4-.8-4.2-1.2-4.2-.4zM289.8 705.7c1.2.2 3.2.2 4.5 0 1.2-.2.2-.4-2.3-.4s-3.5.2-2.2.4zM119.3 607.2c.8 1.3 1.3 1.4 1.9.5 1.2-1.8 1-2.3-1.1-2.3-1.5 0-1.7.3-.8 1.8zM164 650.9c0 1.3 6 5.5 6.7 4.8.6-.6-4.7-5.6-5.9-5.7-.5 0-.8.4-.8.9zM202.4 677.5c3.6 1.9 4.5 1.9 2 0-1-.8-2.6-1.4-3.4-1.5-.8 0-.2.7 1.4 1.5z"/></svg>