<svg version="1" xmlns="http://www.w3.org/2000/svg" width="1365.333" height="1365.333" viewBox="0 0 1024.000000 1024.000000"><path d="M96.8 115c-8.8 1.5-14.9 4.2-22.6 10-8.4 6.3-9.9 7.8-14.2 14.8-5.5 9.1-7.4 15.2-8.8 28.7-.9 9.1-.9 697.9 0 707 1.1 10.7 1.5 12.6 3.8 18.5 5 12.8 13.3 22.3 24.1 27.7 7.7 3.8 9.3 4.4 18.4 6.1 5.2.9 823.8.9 829 0 9.1-1.7 10.7-2.3 18.4-6.1 7.5-3.8 14.5-10.2 18.8-17.2 5.6-9.1 7.8-16.2 9.2-29.5.8-8.9.8-697.7-.1-706.5-.4-3.9-.9-8.4-1.2-10-1-6.6-7.1-19.2-12.3-25.5-4-4.9-17.5-14-24.1-16.2l-6.7-2.3-413.5-.1c-227.4-.1-415.6.2-418.2.6zm822.2 7.9c9.7.7 12.4 1.2 17.3 3.7 7.3 3.5 13.9 10.6 16.8 18.2 2.2 5.5 2.3 7 2.5 40.7l.1 35-.7-34.5c-.4-19-1.2-35.9-1.7-37.5-3.2-9.8-11.3-18.8-19.8-22.1-4.9-1.9-13.4-1.9-421.5-1.9s-416.6 0-421.5 1.9c-8.5 3.3-16.5 12.2-19.8 22.1-.5 1.6-1.3 18.5-1.7 37.5l-.7 34.5.1-35c.2-33.7.3-35.2 2.5-40.7 2.9-7.5 9.5-14.7 16.8-18.3 4.7-2.3 7.6-3 15.8-3.5 14.2-1 801.6-1 815.5-.1zM245 263.8l64.5 24.8v28.9L245 342.2c-35.5 13.6-64.7 24.7-65 24.8-.3 0-.4-6.9-.3-15.2l.2-15.3 46-16.5c25.4-9.1 46.1-16.8 46.1-17.1 0-.3-20.7-8-46.1-17l-46-16.4-.2-15.3c-.1-8.3 0-15.2.3-15.2s29.5 11.2 65 24.8zm194 129.7V406H311v-25h128v12.5z"/></svg>