<svg xmlns="http://www.w3.org/2000/svg" viewBox="0 0 1000 1000" fill="currentColor" aria-hidden="true">
  <path fill-rule="evenodd" d="M 536.4 20.0 L 587.9 24.3 L 637.1 50.0 L 662.9 75.7 L 686.4 110.0 L 710.0 159.3 L 727.1 215.0 L 800.0 272.9 L 815.0 277.1 L 864.3 272.9 L 894.3 307.1 L 926.4 362.9 L 939.3 407.9 L 939.3 422.9 L 932.9 425.0 L 907.1 354.3 L 868.6 305.0 L 851.4 294.3 L 797.9 294.3 L 772.1 283.6 L 755.0 268.6 L 746.4 268.6 L 750.7 337.1 L 748.6 412.1 L 742.1 446.4 L 725.0 485.0 L 722.9 534.3 L 729.3 555.7 L 752.9 598.6 L 755.0 622.1 L 750.7 628.6 L 763.6 630.7 L 793.6 607.1 L 810.7 579.3 L 823.6 540.7 L 827.9 444.3 L 812.9 362.9 L 823.6 365.0 L 836.4 375.7 L 847.1 399.3 L 849.3 474.3 L 860.0 478.6 L 868.6 472.1 L 875.0 444.3 L 890.0 459.3 L 887.9 523.6 L 900.7 527.9 L 909.3 540.7 L 902.9 596.4 L 920.0 594.3 L 932.9 568.6 L 943.6 465.7 L 947.9 467.9 L 954.3 502.1 L 954.3 570.7 L 945.7 611.4 L 924.3 660.7 L 877.1 716.4 L 842.9 740.0 L 793.6 759.3 L 752.9 765.7 L 701.4 763.6 L 697.1 767.9 L 667.1 825.7 L 677.9 827.9 L 701.4 821.4 L 701.4 827.9 L 607.1 969.3 L 637.1 875.0 L 628.6 872.9 L 605.0 881.4 L 594.3 881.4 L 594.3 877.1 L 639.3 748.6 L 605.0 737.9 L 519.3 862.1 L 515.0 862.1 L 515.0 855.7 L 557.9 744.3 L 538.6 742.1 L 521.4 746.4 L 495.7 761.4 L 474.3 785.0 L 470.0 782.9 L 470.0 761.4 L 485.0 725.0 L 497.9 707.9 L 502.1 710.0 L 500.0 722.9 L 506.4 725.0 L 517.1 714.3 L 562.1 697.1 L 602.9 697.1 L 630.7 705.7 L 641.4 703.6 L 624.3 684.3 L 609.3 677.9 L 590.0 677.9 L 583.6 662.9 L 542.9 667.1 L 564.3 652.1 L 596.4 654.3 L 620.0 607.1 L 654.3 632.9 L 656.4 656.4 L 680.0 630.7 L 592.1 560.0 L 600.7 476.4 L 587.9 418.6 L 566.4 388.6 L 525.7 369.3 L 504.3 350.0 L 485.0 305.0 L 478.6 302.9 L 384.3 397.1 L 343.6 459.3 L 315.7 517.1 L 337.1 652.1 L 343.6 656.4 L 371.4 630.7 L 442.1 975.7 L 437.9 980.0 L 354.3 735.7 L 347.9 735.7 L 328.6 770.0 L 320.0 772.1 L 204.3 495.7 L 202.1 433.6 L 191.4 401.4 L 202.1 367.1 L 204.3 341.4 L 200.0 337.1 L 189.3 341.4 L 170.0 392.9 L 159.3 399.3 L 131.4 403.6 L 114.3 380.0 L 99.3 369.3 L 71.4 407.9 L 75.7 420.7 L 73.6 440.0 L 65.0 446.4 L 45.7 448.6 L 39.3 455.0 L 35.0 463.6 L 35.0 500.0 L 22.1 510.7 L 20.0 502.1 L 32.9 433.6 L 43.6 298.6 L 50.0 287.9 L 60.7 285.7 L 58.6 326.4 L 62.9 328.6 L 86.4 302.9 L 118.6 290.0 L 110.0 230.0 L 97.1 204.3 L 86.4 208.6 L 80.0 238.6 L 69.3 249.3 L 71.4 189.3 L 82.1 146.4 L 90.7 146.4 L 103.6 165.7 L 129.3 262.1 L 146.4 255.7 L 174.3 255.7 L 225.7 283.6 L 247.1 285.7 L 260.0 277.1 L 260.0 260.0 L 251.4 245.0 L 309.3 167.9 L 360.7 114.3 L 446.4 50.0 L 482.9 32.9 Z M 446.4 182.9 L 410.0 197.9 L 388.6 212.9 L 347.9 262.1 L 307.1 382.1 L 307.1 399.3 L 313.6 405.7 L 328.6 407.9 L 328.6 412.1 L 305.0 495.7 L 309.3 497.9 L 315.7 491.4 L 384.3 377.9 L 425.0 322.1 L 461.4 287.9 L 474.3 281.4 L 489.3 281.4 L 504.3 294.3 L 512.9 317.9 L 532.1 347.9 L 557.9 371.4 L 585.7 386.4 L 602.9 405.7 L 617.9 457.1 L 617.9 504.3 L 609.3 549.3 L 652.1 592.1 L 682.1 607.1 L 686.4 592.1 L 680.0 572.9 L 654.3 525.7 L 669.3 472.1 L 675.7 414.3 L 671.4 354.3 L 658.6 309.3 L 650.0 309.3 L 647.9 332.9 L 639.3 339.3 L 596.4 270.7 L 566.4 242.9 L 538.6 227.9 L 504.3 219.3 L 442.1 219.3 L 422.9 223.6 L 422.9 215.0 L 452.9 189.3 Z"/>
</svg>
