<svg xmlns="http://www.w3.org/2000/svg" viewBox="0 0 1000 1000" fill="currentColor" aria-hidden="true">
  <path fill-rule="evenodd" d="M 564.0 20.0 L 615.2 24.3 L 664.3 49.9 L 689.9 75.5 L 713.3 109.6 L 736.8 158.7 L 753.9 214.1 L 826.4 271.7 L 841.3 276.0 L 890.4 271.7 L 920.3 305.9 L 952.3 361.3 L 965.1 406.1 L 965.1 421.1 L 958.7 423.2 L 933.1 352.8 L 894.7 303.7 L 877.6 293.1 L 824.3 293.1 L 798.7 282.4 L 781.6 267.5 L 773.1 267.5 L 777.3 335.7 L 775.2 410.4 L 768.8 444.5 L 751.7 482.9 L 749.6 532.0 L 756.0 553.3 L 779.5 596.0 L 781.6 619.5 L 777.3 625.9 L 790.1 628.0 L 820.0 604.5 L 837.1 576.8 L 849.9 538.4 L 854.1 442.4 L 839.2 361.3 L 849.9 363.5 L 862.7 374.1 L 873.3 397.6 L 875.5 472.3 L 886.1 476.5 L 894.7 470.1 L 901.1 442.4 L 916.0 457.3 L 913.9 521.3 L 926.7 525.6 L 935.2 538.4 L 928.8 593.9 L 945.9 591.7 L 958.7 566.1 L 969.3 463.7 L 973.6 465.9 L 980.0 500.0 L 980.0 568.3 L 971.5 608.8 L 950.1 657.9 L 903.2 713.3 L 869.1 736.8 L 820.0 756.0 L 779.5 762.4 L 728.3 760.3 L 724.0 764.5 L 694.1 822.1 L 704.8 824.3 L 728.3 817.9 L 728.3 824.3 L 634.4 965.1 L 664.3 871.2 L 655.7 869.1 L 632.3 877.6 L 621.6 877.6 L 621.6 873.3 L 666.4 745.3 L 632.3 734.7 L 546.9 858.4 L 542.7 858.4 L 542.7 852.0 L 585.3 741.1 L 566.1 738.9 L 549.1 743.2 L 523.5 758.1 L 502.1 781.6 L 497.9 779.5 L 497.9 758.1 L 512.8 721.9 L 525.6 704.8 L 529.9 706.9 L 527.7 719.7 L 534.1 721.9 L 544.8 711.2 L 589.6 694.1 L 630.1 694.1 L 657.9 702.7 L 668.5 700.5 L 651.5 681.3 L 636.5 674.9 L 617.3 674.9 L 610.9 660.0 L 570.4 664.3 L 591.7 649.3 L 623.7 651.5 L 647.2 604.5 L 681.3 630.1 L 683.5 653.6 L 706.9 628.0 L 619.5 557.6 L 628.0 474.4 L 615.2 416.8 L 593.9 386.9 L 553.3 367.7 L 532.0 348.5 L 512.8 303.7 L 506.4 301.6 L 412.5 395.5 L 372.0 457.3 L 344.3 514.9 L 365.6 649.3 L 372.0 653.6 L 399.7 628.0 L 470.1 971.5 L 465.9 975.7 L 382.7 732.5 L 376.3 732.5 L 357.1 766.7 L 348.5 768.8 L 233.3 493.6 L 231.2 431.7 L 220.5 399.7 L 231.2 365.6 L 233.3 340.0 L 229.1 335.7 L 218.4 340.0 L 199.2 391.2 L 188.5 397.6 L 160.8 401.9 L 143.7 378.4 L 128.8 367.7 L 101.1 406.1 L 105.3 418.9 L 103.2 438.1 L 94.7 444.5 L 75.5 446.7 L 69.1 453.1 L 64.8 461.6 L 64.8 497.9 L 52.0 508.5 L 49.9 500.0 L 62.7 431.7 L 73.3 297.3 L 79.7 286.7 L 90.4 284.5 L 88.3 325.1 L 92.5 327.2 L 116.0 301.6 L 148.0 288.8 L 139.5 229.1 L 126.7 203.5 L 116.0 207.7 L 109.6 237.6 L 98.9 248.3 L 101.1 188.5 L 111.7 145.9 L 120.3 145.9 L 133.1 165.1 L 158.7 261.1 L 175.7 254.7 L 203.5 254.7 L 254.7 282.4 L 276.0 284.5 L 288.8 276.0 L 288.8 258.9 L 280.3 244.0 L 337.9 167.2 L 389.1 113.9 L 474.4 49.9 L 510.7 32.8 Z M 474.4 182.1 L 438.1 197.1 L 416.8 212.0 L 376.3 261.1 L 335.7 380.5 L 335.7 397.6 L 342.1 404.0 L 357.1 406.1 L 357.1 410.4 L 333.6 493.6 L 337.9 495.7 L 344.3 489.3 L 412.5 376.3 L 453.1 320.8 L 489.3 286.7 L 502.1 280.3 L 517.1 280.3 L 532.0 293.1 L 540.5 316.5 L 559.7 346.4 L 585.3 369.9 L 613.1 384.8 L 630.1 404.0 L 645.1 455.2 L 645.1 502.1 L 636.5 546.9 L 679.2 589.6 L 709.1 604.5 L 713.3 589.6 L 706.9 570.4 L 681.3 523.5 L 696.3 470.1 L 702.7 412.5 L 698.4 352.8 L 685.6 308.0 L 677.1 308.0 L 674.9 331.5 L 666.4 337.9 L 623.7 269.6 L 593.9 241.9 L 566.1 226.9 L 532.0 218.4 L 470.1 218.4 L 450.9 222.7 L 450.9 214.1 L 480.8 188.5 Z M 128.8 459.5 L 148.0 463.7 L 190.7 461.6 L 203.5 474.4 L 203.5 491.5 L 190.7 489.3 L 177.9 474.4 L 137.3 474.4 L 124.5 482.9 L 122.4 504.3 L 111.7 510.7 L 98.9 546.9 L 73.3 542.7 L 62.7 568.3 L 52.0 578.9 L 43.5 583.2 L 24.3 581.1 L 20.0 572.5 L 43.5 557.6 L 45.6 540.5 L 54.1 527.7 L 90.4 529.9 L 96.8 523.5 L 109.6 480.8 Z M 775.2 468.0 L 781.6 468.0 L 796.5 482.9 L 809.3 510.7 L 800.8 532.0 L 781.6 549.1 L 770.9 540.5 L 764.5 525.6 L 764.5 493.6 Z M 241.9 572.5 L 258.9 600.3 L 290.9 674.9 L 290.9 687.7 L 273.9 709.1 L 258.9 704.8 L 241.9 689.9 L 235.5 692.0 L 261.1 824.3 L 254.7 817.9 L 158.7 596.0 L 158.7 591.7 L 167.2 591.7 L 186.4 598.1 L 244.0 634.4 Z"/>
</svg>
